<svg width="843" height="596" viewBox="0 0 843 596" fill="none" xmlns="http://www.w3.org/2000/svg">
<rect width="595" height="842" transform="translate(0.5 595.5) rotate(-90)" fill="#FDED63"/>
<path d="M298.344 273.5H304.375V305.719C304.375 310.073 303.062 313.479 300.438 315.938C297.833 318.396 294.354 319.625 290 319.625C285.479 319.625 281.958 318.469 279.438 316.156C276.917 313.844 275.656 310.604 275.656 306.438H281.656C281.656 309.042 282.365 311.073 283.781 312.531C285.219 313.99 287.292 314.719 290 314.719C292.479 314.719 294.479 313.938 296 312.375C297.542 310.812 298.323 308.625 298.344 305.812V273.5ZM334.562 319C334.229 318.333 333.958 317.146 333.75 315.438C331.062 318.229 327.854 319.625 324.125 319.625C320.792 319.625 318.052 318.688 315.906 316.812C313.781 314.917 312.719 312.521 312.719 309.625C312.719 306.104 314.052 303.375 316.719 301.438C319.406 299.479 323.177 298.5 328.031 298.5H333.656V295.844C333.656 293.823 333.052 292.219 331.844 291.031C330.635 289.823 328.854 289.219 326.5 289.219C324.438 289.219 322.708 289.74 321.312 290.781C319.917 291.823 319.219 293.083 319.219 294.562H313.406C313.406 292.875 314 291.25 315.188 289.688C316.396 288.104 318.021 286.854 320.062 285.938C322.125 285.021 324.385 284.562 326.844 284.562C330.74 284.562 333.792 285.542 336 287.5C338.208 289.438 339.354 292.115 339.438 295.531V311.094C339.438 314.198 339.833 316.667 340.625 318.5V319H334.562ZM324.969 314.594C326.781 314.594 328.5 314.125 330.125 313.188C331.75 312.25 332.927 311.031 333.656 309.531V302.594H329.125C322.042 302.594 318.5 304.667 318.5 308.812C318.5 310.625 319.104 312.042 320.312 313.062C321.521 314.083 323.073 314.594 324.969 314.594ZM359.156 311.156L367.531 285.188H373.438L361.312 319H356.906L344.656 285.188H350.562L359.156 311.156ZM399.375 319C399.042 318.333 398.771 317.146 398.562 315.438C395.875 318.229 392.667 319.625 388.938 319.625C385.604 319.625 382.865 318.688 380.719 316.812C378.594 314.917 377.531 312.521 377.531 309.625C377.531 306.104 378.865 303.375 381.531 301.438C384.219 299.479 387.99 298.5 392.844 298.5H398.469V295.844C398.469 293.823 397.865 292.219 396.656 291.031C395.448 289.823 393.667 289.219 391.312 289.219C389.25 289.219 387.521 289.74 386.125 290.781C384.729 291.823 384.031 293.083 384.031 294.562H378.219C378.219 292.875 378.812 291.25 380 289.688C381.208 288.104 382.833 286.854 384.875 285.938C386.938 285.021 389.198 284.562 391.656 284.562C395.552 284.562 398.604 285.542 400.812 287.5C403.021 289.438 404.167 292.115 404.25 295.531V311.094C404.25 314.198 404.646 316.667 405.438 318.5V319H399.375ZM389.781 314.594C391.594 314.594 393.312 314.125 394.938 313.188C396.562 312.25 397.74 311.031 398.469 309.531V302.594H393.938C386.854 302.594 383.312 304.667 383.312 308.812C383.312 310.625 383.917 312.042 385.125 313.062C386.333 314.083 387.885 314.594 389.781 314.594ZM433 310.031C433 308.469 432.406 307.26 431.219 306.406C430.052 305.531 428 304.781 425.062 304.156C422.146 303.531 419.823 302.781 418.094 301.906C416.385 301.031 415.115 299.99 414.281 298.781C413.469 297.573 413.062 296.135 413.062 294.469C413.062 291.698 414.229 289.354 416.562 287.438C418.917 285.521 421.917 284.562 425.562 284.562C429.396 284.562 432.5 285.552 434.875 287.531C437.271 289.51 438.469 292.042 438.469 295.125H432.656C432.656 293.542 431.979 292.177 430.625 291.031C429.292 289.885 427.604 289.312 425.562 289.312C423.458 289.312 421.812 289.771 420.625 290.688C419.438 291.604 418.844 292.802 418.844 294.281C418.844 295.677 419.396 296.729 420.5 297.438C421.604 298.146 423.594 298.823 426.469 299.469C429.365 300.115 431.708 300.885 433.5 301.781C435.292 302.677 436.615 303.76 437.469 305.031C438.344 306.281 438.781 307.812 438.781 309.625C438.781 312.646 437.573 315.073 435.156 316.906C432.74 318.719 429.604 319.625 425.75 319.625C423.042 319.625 420.646 319.146 418.562 318.188C416.479 317.229 414.844 315.896 413.656 314.188C412.49 312.458 411.906 310.594 411.906 308.594H417.688C417.792 310.531 418.562 312.073 420 313.219C421.458 314.344 423.375 314.906 425.75 314.906C427.938 314.906 429.688 314.469 431 313.594C432.333 312.698 433 311.51 433 310.031ZM459.875 314.906C461.938 314.906 463.74 314.281 465.281 313.031C466.823 311.781 467.677 310.219 467.844 308.344H473.312C473.208 310.281 472.542 312.125 471.312 313.875C470.083 315.625 468.438 317.021 466.375 318.062C464.333 319.104 462.167 319.625 459.875 319.625C455.271 319.625 451.604 318.094 448.875 315.031C446.167 311.948 444.812 307.74 444.812 302.406V301.438C444.812 298.146 445.417 295.219 446.625 292.656C447.833 290.094 449.562 288.104 451.812 286.688C454.083 285.271 456.76 284.562 459.844 284.562C463.635 284.562 466.781 285.698 469.281 287.969C471.802 290.24 473.146 293.188 473.312 296.812H467.844C467.677 294.625 466.844 292.833 465.344 291.438C463.865 290.021 462.031 289.312 459.844 289.312C456.906 289.312 454.625 290.375 453 292.5C451.396 294.604 450.594 297.656 450.594 301.656V302.75C450.594 306.646 451.396 309.646 453 311.75C454.604 313.854 456.896 314.906 459.875 314.906ZM496.156 290.375C495.281 290.229 494.333 290.156 493.312 290.156C489.521 290.156 486.948 291.771 485.594 295V319H479.812V285.188H485.438L485.531 289.094C487.427 286.073 490.115 284.562 493.594 284.562C494.719 284.562 495.573 284.708 496.156 285V290.375ZM507.781 319H502V285.188H507.781V319ZM501.531 276.219C501.531 275.281 501.812 274.49 502.375 273.844C502.958 273.198 503.812 272.875 504.938 272.875C506.062 272.875 506.917 273.198 507.5 273.844C508.083 274.49 508.375 275.281 508.375 276.219C508.375 277.156 508.083 277.938 507.5 278.562C506.917 279.188 506.062 279.5 504.938 279.5C503.812 279.5 502.958 279.188 502.375 278.562C501.812 277.938 501.531 277.156 501.531 276.219ZM545.625 302.469C545.625 307.615 544.448 311.76 542.094 314.906C539.74 318.052 536.552 319.625 532.531 319.625C528.427 319.625 525.198 318.323 522.844 315.719V332H517.062V285.188H522.344L522.625 288.938C524.979 286.021 528.25 284.562 532.438 284.562C536.5 284.562 539.708 286.094 542.062 289.156C544.438 292.219 545.625 296.479 545.625 301.938V302.469ZM539.844 301.812C539.844 298 539.031 294.99 537.406 292.781C535.781 290.573 533.552 289.469 530.719 289.469C527.219 289.469 524.594 291.021 522.844 294.125V310.281C524.573 313.365 527.219 314.906 530.781 314.906C533.552 314.906 535.75 313.812 537.375 311.625C539.021 309.417 539.844 306.146 539.844 301.812ZM560.844 277V285.188H567.156V289.656H560.844V310.625C560.844 311.979 561.125 313 561.688 313.688C562.25 314.354 563.208 314.688 564.562 314.688C565.229 314.688 566.146 314.562 567.312 314.312V319C565.792 319.417 564.312 319.625 562.875 319.625C560.292 319.625 558.344 318.844 557.031 317.281C555.719 315.719 555.062 313.5 555.062 310.625V289.656H548.906V285.188H555.062V277H560.844Z" fill="black"/>
</svg>
